<svg xmlns="http://www.w3.org/2000/svg" width="64" height="64" viewBox="0 0 64 64" style="fill-rule:evenodd">
<defs>
</defs>
<path d="M 0 28 C 2.46851 19.2019, 3.90098 16.4671, 8.47783 11.8142 C 25.5102 -5.50116, 57.2467 2.55114, 63.4029 25.75 C 63.6019 26.5, 63.801 27.25, 64 28 C 64 29.3333, 64 30.6667, 64 32 C 61.9935 38.6641, 60.4116 42.216, 59.19 44.1926 C 53.089 54.0642, 36.7047 60.1775, 24.551 57.1171 C 20.4873 56.0939, 19.6591 56.1848, 17.2343 57.9205 C 13.7121 60.4415, 6.06371 62.4637, 4.8063 61.2063 C 4.22059 60.6206, 4.64348 58.9934, 5.92977 56.8835 C 8.71048 52.3224, 8.53713 49.9164, 5.02925 44.3851 C 3.39534 41.8087, 1.59534 37.968, 1.02925 35.8503 C 0.68617 34.5669, 0.343085 33.2835, 0 32 C 0 30.6667, 0 29.3333, 0 28 Z M 21 26 C 19.9 24.9, 18.3045 24, 17.4545 24 C 15.4541 24, 11 28.4541, 11 30.4545 C 11 32.6458, 14.6292 36, 17 36 C 18.1 36, 19.9 35.1, 21 34 C 22.1 32.9, 23 31.1, 23 30 C 23 28.9, 22.1 27.1, 21 26 Z M 36 26 C 34.9 24.9, 33.3045 24, 32.4545 24 C 30.4541 24, 26 28.4541, 26 30.4545 C 26 32.6458, 29.6292 36, 32 36 C 33.1 36, 34.9 35.1, 36 34 C 37.1 32.9, 38 31.1, 38 30 C 38 28.9, 37.1 27.1, 36 26 Z M 51 26 C 49.9 24.9, 48.3045 24, 47.4545 24 C 45.4541 24, 41 28.4541, 41 30.4545 C 41 32.6458, 44.6292 36, 47 36 C 48.1 36, 49.9 35.1, 51 34 C 52.1 32.9, 53 31.1, 53 30 C 53 28.9, 52.1 27.1, 51 26 Z " fill="rgb(0,0,0)" />
</svg>
