<svg xmlns="http://www.w3.org/2000/svg" width="512" height="512" viewBox="0 0 512 512" style="fill-rule:evenodd">
<defs>
</defs>
<path d="M 495.373 262 C 494.173 307.265, 480.552 350.862, 456.161 387.5 C 445.071 404.158, 437.271 413.528, 422.702 427.695 C 377.297 471.845, 320.181 495.156, 257 495.324 C 227.746 495.401, 206.978 492.108, 180.102 483.132 C 91.9458 453.687, 29.8939 377.526, 17.8608 284 C 16.2873 271.77, 16.2873 240.23, 17.8608 228 C 25.1839 171.082, 48.7496 123.9, 90.1362 83.2939 C 125.934 48.1707, 175.662 24.5377, 227.76 17.8888 C 240.24 16.2961, 271.717 16.2804, 284 17.8608 C 322.485 22.8123, 356.905 35.4685, 387.763 56.0132 C 403.328 66.3767, 413.266 74.5541, 426.218 87.6572 C 439.173 100.763, 445.657 108.738, 456.087 124.396 C 475.516 153.563, 488.972 189.485, 493.399 224 C 495.682 241.802, 495.832 244.69, 495.373 262 Z M 380.04 136.299 C 377.891 132.773, 373.374 130, 369.782 130 C 368.508 130, 360.498 132.865, 351.982 136.367 C 253.194 176.99, 215.786 192.597, 212.063 194.744 C 206.007 198.237, 199.724 204.197, 196.032 209.949 C 192.053 216.151, 129.999 366.474, 130.004 369.9 C 130.012 375.622, 136.491 382, 142.296 382 C 145.057 382, 293.256 321.148, 299.937 317.271 C 306.011 313.747, 312.285 307.789, 315.968 302.051 C 319.947 295.849, 382.001 145.526, 381.996 142.1 C 381.994 140.67, 381.114 138.059, 380.04 136.299 Z " fill="rgb(0,0,0)" />
<path d="M 287.497 258.343 C 286.559 269.619, 279.62 279.593, 269.147 284.716 C 261.82 288.301, 251.034 288.546, 243.824 285.29 C 237.241 282.317, 230.516 275.753, 227.284 269.147 C 223.359 261.125, 223.359 250.874, 227.284 242.853 C 230.516 236.247, 237.241 229.683, 243.824 226.71 C 250.28 223.795, 261.696 223.784, 268.122 226.687 C 280.847 232.434, 288.599 245.101, 287.497 258.343 Z " fill="rgb(0,0,0)" />
</svg>
